<svg xmlns="http://www.w3.org/2000/svg" width="1920" height="1080" viewBox="0 0 1920 1080">
  <defs>
    <linearGradient id="bg" x1="0" y1="0" x2="0" y2="1"><stop stop-color="#07101c"/><stop offset=".58" stop-color="#122541"/><stop offset="1" stop-color="#05090f"/></linearGradient>
    <radialGradient id="sun"><stop stop-color="#ffdd8c"/><stop offset=".72" stop-color="#e28b67"/><stop offset="1" stop-color="#db5f86"/></radialGradient>
    <linearGradient id="grid" x1="0" y1="0" x2="1" y2="0"><stop stop-color="#28ddda" stop-opacity=".15"/><stop offset=".5" stop-color="#6b7bff" stop-opacity=".7"/><stop offset="1" stop-color="#28ddda" stop-opacity=".15"/></linearGradient>
  </defs>
  <rect width="1920" height="1080" fill="url(#bg)"/>
  <circle cx="960" cy="480" r="145" fill="url(#sun)" opacity=".94"/>
  <rect x="0" y="470" width="1920" height="160" fill="#07101c" opacity=".24"/>
  <path d="M0 640 H1920" stroke="#57dadd" stroke-opacity=".8" stroke-width="3"/>
  <g stroke="url(#grid)" fill="none" stroke-width="2">
    <path d="M960 640 L80 1080"/><path d="M960 640 L260 1080"/><path d="M960 640 L460 1080"/><path d="M960 640 L680 1080"/><path d="M960 640 L960 1080"/><path d="M960 640 L1240 1080"/><path d="M960 640 L1460 1080"/><path d="M960 640 L1660 1080"/><path d="M960 640 L1840 1080"/>
    <path d="M0 700 H1920"/><path d="M0 780 H1920"/><path d="M0 880 H1920"/><path d="M0 1000 H1920"/>
  </g>
  <g fill="#0a1726"><rect x="130" y="510" width="90" height="130"/><rect x="250" y="555" width="150" height="85"/><rect x="1500" y="500" width="110" height="140"/><rect x="1640" y="545" width="170" height="95"/></g>
</svg>
